<svg width="96" height="96" viewBox="0 0 96 96" xmlns="http://www.w3.org/2000/svg">
  <defs>
    <linearGradient id="g" x1="0" x2="1" y1="0" y2="1">
      <stop offset="0%" stop-color="#0f766e" />
      <stop offset="100%" stop-color="#14b8a6" />
    </linearGradient>
  </defs>
  <rect x="8" y="8" width="80" height="80" rx="20" fill="url(#g)" />
  <path d="M48 26c-8 0-14 6-14 14v4h-8v8h8v4c0 8 6 14 14 14s14-6 14-14v-4h8v-8h-8v-4c0-8-6-14-14-14zm0 10c3.3 0 6 2.7 6 6v4H42v-4c0-3.3 2.7-6 6-6zm0 34c-3.3 0-6-2.7-6-6v-4h12v4c0 3.3-2.7 6-6 6z" fill="#ffffff" />
</svg>
